<svg xmlns="http://www.w3.org/2000/svg" width="170" height="48" fill="none"><path fill="#000" fill-rule="evenodd" d="M62.184 36.24c.08 0 .14-.016.18-.048.04-.032.06-.08.06-.144 0-.048-.02-.092-.06-.132-.04-.04-.116-.068-.228-.084l-.912-.216c-.208-.048-.356-.148-.444-.3-.088-.152-.132-.356-.132-.612V.336c0-.096-.028-.176-.084-.24-.056-.064-.14-.096-.252-.096-.096 0-.18.008-.252.024-.072.016-.204.048-.396.096l-9.096 2.52c-.064.016-.12.04-.168.072-.048.032-.072.08-.072.144 0 .064.02.116.06.156.04.04.116.06.228.06h.936c.144 0 .248.032.312.096s.096.16.096.288v31.248c0 .256-.04.46-.12.612-.08.152-.232.252-.456.3l-.912.216c-.112.016-.188.044-.228.084-.04.04-.06.084-.06.132 0 .064.024.112.072.144.048.032.104.048.168.048h11.76ZM12.336 48c3.936 0 6.968-.72 9.096-2.16 2.128-1.44 3.192-3.312 3.192-5.616 0-1.264-.284-2.312-.852-3.144-.568-.832-1.56-1.5-2.976-2.004s-3.388-.9-5.916-1.188c-1.504-.176-2.648-.356-3.432-.54-.784-.184-1.32-.388-1.608-.612-.288-.224-.432-.496-.432-.816 0-.32.088-.576.264-.768.05867-.064.11644-.1173.17333-.16l.02967-.019.07567.0083c.72623.0818 1.48933.1227 2.28933.1227 2.112 0 4-.384 5.664-1.152 1.664-.768 2.976-1.804 3.936-3.108s1.44-2.764 1.44-4.38c0-1.408-.42-2.736-1.26-3.984-.84-1.248-2.072-2.264-3.696-3.048-.6496-.3136-1.3562-.5645-2.1197-.7526l-.1423-.0324c.188-.4987.402-.889.642-1.171.32-.376.728-.564 1.224-.564.448 0 .836.164 1.164.492.328.328.652.708.972 1.14.32.432.68.812 1.08 1.14.4.328.896.492 1.488.492.992 0 1.756-.292 2.292-.876.536-.584.804-1.396.804-2.436 0-1.184-.328-2.144-.984-2.88-.656-.736-1.648-1.104-2.976-1.104-1.552 0-2.82.544-3.804 1.632-.9083 1.0043-1.6496 2.2949-2.2239 3.8718l-.0631.1792-.2552-.0509c-.9351-.1707-1.9477-.2561-3.0378-.2561-2.416 0-4.504.392-6.264 1.176-1.76.784-3.116 1.844-4.068 3.18C1.1 19.948.624 21.456.624 23.136c0 1.424.468 2.74 1.404 3.948.936 1.208 2.272 2.18 4.008 2.916.81013.3435 1.69257.6068 2.64731.79l.24369.044c-1.27441.1535-2.33008.3995-3.167.738-1.088.44-1.872 1.004-2.352 1.692-.48.688-.72 1.472-.72 2.352 0 .96.264 1.724.792 2.292.396.426.972.7868 1.728 1.0822l.015.0068-.10174.0129c-1.649.2329-2.87208.6096-3.66926 1.1301C.484 40.772 0 41.76 0 43.104c0 .976.404 1.832 1.212 2.568.808.736 2.116 1.308 3.924 1.716 1.808.408 4.208.612 7.2.612Zm-.792-18.348c-.464-.552-.884-1.392-1.26-2.52-.376-1.128-.684-2.524-.924-4.188-.224-1.648-.308-3.064-.252-4.248.056-1.184.228-2.1.516-2.748.288-.648.664-1.004 1.128-1.068.656-.096 1.32.492 1.992 1.764.672 1.272 1.184 3.148 1.536 5.628.352 2.512.38 4.468.084 5.868-.296 1.4-.78 2.148-1.452 2.244-.448.064-.904-.18-1.368-.732ZM7.668 45.504c1.144 1.248 2.78 1.872 4.908 1.872 1.152 0 2.108-.108 2.868-.324.76-.216 1.328-.564 1.704-1.044.376-.48.564-1.112.564-1.896 0-.688-.2-1.28-.6-1.776-.4-.496-1.112-.916-2.136-1.26s-2.464-.644-4.32-.9c-1.77231-.2511-3.22424-.5294-4.35579-.835L6.153 39.3l-.0282.0792c-.0256.0768-.0512.1664-.0768.2688-.064.256-.096.544-.096.864 0 2.08.572 3.744 1.716 4.992Zm35.316-8.784c1.504 0 2.692-.244 3.564-.732.872-.488 1.496-1.036 1.872-1.644.376-.608.564-1.096.564-1.464 0-.08-.012-.132-.036-.156-.024-.024-.06-.036-.108-.036-.032 0-.06.012-.084.036-.024.024-.044.076-.06.156-.064.496-.212.836-.444 1.02-.232.184-.468.276-.708.276-.24 0-.444-.096-.612-.288-.168-.192-.252-.48-.252-.864V21.168c0-2.24-.764-3.952-2.292-5.136-1.528-1.184-3.828-1.776-6.9-1.776-2.272 0-4.172.304-5.7.912-1.528.608-2.676 1.364-3.444 2.268-.768.904-1.152 1.796-1.152 2.676 0 1.024.284 1.784.852 2.28.568.496 1.292.744 2.172.744 1.312 0 2.376-.404 3.192-1.212.816-.808 1.224-1.748 1.224-2.82V16.56c0-.576.16-1.032.48-1.368.32-.336.752-.504 1.296-.504.432 0 .796.168 1.092.504.296.336.444.792.444 1.368v8.88l-.0523-.0174c-.3353-.0998-.7583-.1568-1.269-.171l-.2627-.0036c-3.792 0-6.492.548-8.1 1.644-1.608 1.096-2.412 2.612-2.412 4.548 0 1.536.604 2.8 1.812 3.792 1.208.992 2.732 1.488 4.572 1.488 1.44 0 2.78-.308 4.02-.924.7631-.3791 1.4125-.8627 1.9484-1.4508l.1806-.2082.0023.0529c.0489.5995.3423 1.1295.88 1.59l.1687.1361c.704.536 1.888.804 3.552.804Zm-7.944-3.36c.432.64.984.96 1.656.96l.1582-.0081c.3174-.0323.6407-.1616.9698-.3879l.12-.089v-7.967l-.072-.02c-.336-.08-.728-.12-1.176-.12-.704 0-1.264.368-1.68 1.104-.416.736-.624 1.872-.624 3.408 0 1.44.216 2.48.648 3.12Zm41.052 2.832c-.04.032-.1.048-.18.048h-11.76c-.064 0-.12-.016-.168-.048-.048-.032-.072-.08-.072-.144 0-.048.02-.092.06-.132.04-.04.116-.068.228-.084l.912-.216c.224-.048.376-.148.456-.3.08-.152.12-.356.12-.612V3.456c0-.128-.032-.224-.096-.288-.064-.064-.168-.096-.312-.096h-.936c-.112 0-.188-.02-.228-.06-.04-.04-.06-.092-.06-.156s.024-.112.072-.144c.048-.032.104-.056.168-.072L73.392.12c.192-.048.324-.08.396-.096.072-.016.156-.024.252-.024.112 0 .196.032.252.096.056.064.084.144.084.24v34.368c0 .256.044.46.132.612.088.152.236.252.444.3l.912.216c.112.016.188.044.228.084.04.04.06.084.06.132 0 .064-.02.112-.06.144Zm12.348.528c2 0 3.792-.42 5.376-1.26 1.584-.84 2.836-1.984 3.756-3.432.92-1.448 1.38-3.084 1.38-4.908 0-.096-.02-.16-.06-.192-.04-.032-.084-.048-.132-.048-.016 0-.044.012-.084.036-.04.024-.06.076-.06.156 0 1.488-.556 2.676-1.668 3.564-1.112.888-2.556 1.332-4.332 1.332-2.208 0-3.976-.756-5.304-2.268-.9407-1.071-1.5482-2.5936-1.8225-4.5677l-.0285-.2203h12.915c.192 0 .3405-.0358.4454-.1075l.0706-.0605c.104-.112.156-.248.156-.408 0-1.92-.416-3.64-1.248-5.16-.832-1.52-2.012-2.72-3.54-3.6-1.528-.88-3.34-1.32-5.436-1.32-2.352 0-4.396.46-6.132 1.38-1.736.92-3.076 2.24-4.02 3.96-.944 1.72-1.416 3.78-1.416 6.18 0 2.144.48 4.04 1.44 5.688.96 1.648 2.28 2.936 3.96 3.864 1.68.928 3.608 1.392 5.784 1.392Zm-3.12-14.256c0 .552.0184 1.079.0553 1.581l.0237.291h4.625c.288 0 .432-.176.432-.528 0-3.216-.292-5.524-.876-6.924-.584-1.4-1.188-2.1-1.812-2.1-.432 0-.832.228-1.2.684-.368.456-.668 1.244-.9 2.364-.232 1.12-.348 2.664-.348 4.632Zm28.464 13.776c.096 0 .168-.016.216-.048.048-.032.072-.08.072-.144 0-.048-.016-.088-.048-.12s-.096-.056-.192-.072l-2.352-.48c-.192-.048-.344-.16-.456-.336-.112-.176-.168-.368-.168-.576V23.52c0-1.088.064-1.976.192-2.664.128-.688.308-1.192.54-1.512.232-.32.5-.48.804-.48.336 0 .568.112.696.336.128.224.2.512.216.864l.048.912c.064 1.168.352 2.06.864 2.676.512.616 1.336.924 2.472.924 1.232 0 2.256-.416 3.072-1.248.816-.832 1.224-2.112 1.224-3.84 0-1.76-.344-3.072-1.032-3.936-.688-.864-1.688-1.296-3-1.296-1.072 0-2.104.34-3.096 1.02-.992.68-1.804 1.688-2.436 3.024-.226.4771-.411.9956-.556 1.5554l-.008.0296v-5.101c0-.064-.011-.1244-.032-.1813l-.04-.0827c-.048-.08-.136-.12-.264-.12-.096 0-.188.008-.276.024-.088.016-.204.04-.348.072l-9.12 2.064c-.096.016-.168.048-.216.096-.048.048-.072.096-.072.144 0 .048.024.092.072.132.048.04.104.06.168.06h1.056c.144 0 .244.044.3.132.056.088.084.204.084.348v17.376c0 .192-.04.356-.12.492-.08.136-.232.228-.456.276l-.864.192c-.096.016-.176.048-.24.096s-.096.096-.096.144c0 .048.024.092.072.132.048.04.12.06.216.06h13.104Zm17.7-24.84c-.936.928-2.14 1.392-3.612 1.392-1.456 0-2.64-.464-3.552-1.392-.912-.928-1.368-2.064-1.368-3.408 0-1.344.456-2.48 1.368-3.408.912-.928 2.096-1.392 3.552-1.392 1.472 0 2.676.464 3.612 1.392.936.928 1.404 2.064 1.404 3.408 0 1.344-.468 2.48-1.404 3.408Zm2.364 24.84c.08 0 .14-.016.18-.048.04-.032.06-.08.06-.144 0-.048-.02-.092-.06-.132-.04-.04-.116-.068-.228-.084l-.912-.216c-.208-.048-.356-.148-.444-.3-.088-.152-.132-.356-.132-.612V14.496c0-.096-.028-.176-.084-.24-.056-.064-.14-.096-.252-.096-.096 0-.18.008-.252.024-.072.016-.204.048-.396.096l-9.096 2.52c-.064.016-.12.04-.168.072-.048.032-.072.08-.072.144 0 .064.02.116.06.156.04.04.116.06.228.06h.936c.144 0 .248.032.312.096s.096.16.096.288v17.088c0 .256-.04.46-.12.612-.08.152-.232.252-.456.3l-.912.216c-.112.016-.188.044-.228.084-.04.04-.06.084-.06.132 0 .064.024.112.072.144.048.032.104.048.168.048h11.76Zm21.852-.252c-.872.488-2.06.732-3.564.732-1.664 0-2.848-.268-3.552-.804l-.169-.1361c-.537-.4605-.831-.9905-.88-1.59l-.002-.0529-.181.2082c-.535.5881-1.185 1.0717-1.948 1.4508-1.24.616-2.58.924-4.02.924-1.84 0-3.364-.496-4.572-1.488-1.208-.992-1.812-2.256-1.812-3.792 0-1.936.804-3.452 2.412-4.548 1.608-1.096 4.308-1.644 8.1-1.644l.263.0036c.51.0142.933.0712 1.269.171l.052.0174v-8.88c0-.576-.148-1.032-.444-1.368-.296-.336-.66-.504-1.092-.504-.544 0-.976.168-1.296.504-.32.336-.48.792-.48 1.368v2.544c0 1.072-.408 2.012-1.224 2.82-.816.808-1.88 1.212-3.192 1.212-.88 0-1.604-.248-2.172-.744-.568-.496-.852-1.256-.852-2.28 0-.88.384-1.772 1.152-2.676.768-.904 1.916-1.66 3.444-2.268 1.528-.608 3.428-.912 5.7-.912 3.072 0 5.372.592 6.9 1.776 1.528 1.184 2.292 2.896 2.292 5.136v11.856c0 .384.084.672.252.864.168.192.372.288.612.288s.476-.092.708-.276c.232-.184.38-.524.444-1.02.016-.08.036-.132.06-.156.024-.024.052-.036.084-.036.048 0 .084.012.108.036.024.024.036.076.036.156 0 .368-.188.856-.564 1.464-.376.608-1 1.156-1.872 1.644Zm-9.852-1.668c-.672 0-1.224-.32-1.656-.96-.432-.64-.648-1.68-.648-3.12 0-1.536.208-2.672.624-3.408.416-.736.976-1.104 1.68-1.104.448 0 .84.04 1.176.12l.072.02v7.967l-.12.089c-.329.2263-.652.3556-.97.3879l-.158.0081Zm21.264 1.716c-.752.456-1.6.684-2.544.684-.912 0-1.74-.228-2.484-.684-.744-.456-1.332-1.068-1.764-1.836-.432-.768-.648-1.608-.648-2.52 0-.896.216-1.72.648-2.472.432-.752 1.02-1.352 1.764-1.8.744-.448 1.572-.672 2.484-.672.944 0 1.792.224 2.544.672.752.448 1.348 1.048 1.788 1.8.44.752.66 1.576.66 2.472 0 .912-.22 1.752-.66 2.52-.44.768-1.036 1.38-1.788 1.836Z" clip-rule="evenodd"/></svg>